HIERARCHY
ROOT joint_0
{
	OFFSET 0.000000 0.000000 0.000000
	CHANNELS 6 Xposition Yposition Zposition Zrotation Yrotation Xrotation 
	JOINT joint_1
	{
		OFFSET 7.745728 2.152245 124.869995
		CHANNELS 3 Zrotation Yrotation Xrotation
		JOINT joint_2
		{
			OFFSET -6.359406 2.617477 113.975952
			CHANNELS 3 Zrotation Yrotation Xrotation
			JOINT joint_3
			{
				OFFSET -8.187927 3.340103 113.713013
				CHANNELS 3 Zrotation Yrotation Xrotation
				JOINT joint_4
				{
					OFFSET 2.859222 5.755905 159.680054
					CHANNELS 3 Zrotation Yrotation Xrotation
					JOINT joint_5
					{
						OFFSET 22.724274 2.598469 88.906982
						CHANNELS 3 Zrotation Yrotation Xrotation
						End Site
						{
							OFFSET 0.000000 0.000000 0.000000
						}
					}
				}
				JOINT joint_6
				{
					OFFSET 2.312134 -31.513222 90.723022
					CHANNELS 3 Zrotation Yrotation Xrotation
					JOINT joint_7
					{
						OFFSET -0.486389 -150.827950 -17.660034
						CHANNELS 3 Zrotation Yrotation Xrotation
						JOINT joint_8
						{
							OFFSET 15.633850 -16.961029 -297.395020
							CHANNELS 3 Zrotation Yrotation Xrotation
							JOINT joint_9
							{
								OFFSET 5.600098 1.609863 -262.782959
								CHANNELS 3 Zrotation Yrotation Xrotation
								End Site
								{
									OFFSET 0.000000 0.000000 0.000000
								}
							}
						}
					}
				}
				JOINT joint_10
				{
					OFFSET 1.012756 37.963039 88.243042
					CHANNELS 3 Zrotation Yrotation Xrotation
					JOINT joint_11
					{
						OFFSET -2.397430 150.471996 -20.492065
						CHANNELS 3 Zrotation Yrotation Xrotation
						JOINT joint_12
						{
							OFFSET -10.575745 12.779427 -297.765015
							CHANNELS 3 Zrotation Yrotation Xrotation
							JOINT joint_13
							{
								OFFSET 196.311081 2.689713 -176.286011
								CHANNELS 3 Zrotation Yrotation Xrotation
								End Site
								{
									OFFSET 0.000000 0.000000 0.000000
								}
							}
						}
					}
				}
			}
		}
	}
	JOINT joint_14
	{
		OFFSET 1.244965 -96.891136 -118.152039
		CHANNELS 3 Zrotation Yrotation Xrotation
		JOINT joint_15
		{
			OFFSET -2.982971 -16.401871 -443.439026
			CHANNELS 3 Zrotation Yrotation Xrotation
			JOINT joint_16
			{
				OFFSET -42.052063 -15.386002 -460.966980
				CHANNELS 3 Zrotation Yrotation Xrotation
				JOINT joint_17
				{
					OFFSET 177.916595 102.818184 -88.655001
					CHANNELS 3 Zrotation Yrotation Xrotation
					End Site
					{
						OFFSET 0.000000 0.000000 0.000000
					}
				}
			}
		}
	}
	JOINT joint_18
	{
		OFFSET 1.788635 96.476997 -118.463074
		CHANNELS 3 Zrotation Yrotation Xrotation
		JOINT joint_19
		{
			OFFSET -9.555542 8.093691 -443.574951
			CHANNELS 3 Zrotation Yrotation Xrotation
			JOINT joint_20
			{
				OFFSET -48.427551 9.415819 -460.500023
				CHANNELS 3 Zrotation Yrotation Xrotation
				JOINT joint_21
				{
					OFFSET 204.978119 20.223980 -87.523996
					CHANNELS 3 Zrotation Yrotation Xrotation
					End Site
					{
						OFFSET 0.000000 0.000000 0.000000
					}
				}
			}
		}
	}
}
MOTION
Frames: 7
Frame Time: 0.016667
292.036102 -136.246933 1149.421021 -2.615840 5.399047 0.116366 0.309067 -5.694652 1.321790 0.424916 0.888098 -0.290754 0.553339 -1.249598 0.210225 -0.932385 3.006697 3.253256 0.000000 0.000000 0.000000 5.031707 3.008001 1.669145 -3.099372 3.913366 -12.447170 -0.333047 -19.652835 16.457369 0.000000 0.000000 0.000000 -5.235076 1.912793 2.711831 1.520895 2.555805 -5.396734 2.802998 39.306134 0.540511 0.000000 0.000000 0.000000 -6.427635 -14.457752 -5.457087 -8.078690 26.956328 0.317143 -10.069897 -3.640439 -2.661727 0.000000 0.000000 0.000000 -4.878497 -1.314067 3.461351 -4.563155 6.247118 -3.520471 -5.101610 -1.289750 -1.997478 0.000000 0.000000 0.000000 
296.017212 -136.277924 1146.489014 -1.731127 5.692202 0.240817 -0.069203 -5.476318 1.660658 0.080744 0.842770 -0.343554 0.220959 -1.242122 0.284694 -0.971618 2.896310 3.423398 0.000000 0.000000 0.000000 4.859955 2.996437 1.518799 -3.859510 3.884890 -14.285413 -0.568404 -23.893248 21.570044 0.000000 0.000000 0.000000 -5.439273 1.746940 2.906406 1.660009 2.425191 -5.372507 2.926250 38.875638 0.503620 0.000000 0.000000 0.000000 -6.244475 -15.962452 -6.636843 -7.920917 28.596281 0.336125 -10.087091 -4.149249 -2.314886 0.000000 0.000000 0.000000 -5.030421 -0.319985 3.160006 -4.814720 4.358669 -2.890508 -5.180353 -2.121117 -1.948208 0.000000 0.000000 0.000000 
299.798645 -136.948273 1143.114990 -0.809915 6.028434 0.332189 -0.463644 -5.222523 1.933094 -0.318220 0.790549 -0.386548 -0.173527 -1.225887 0.327587 -1.009894 2.894067 3.579782 0.000000 0.000000 0.000000 4.638421 2.712662 1.488783 -4.703452 3.538770 -16.284326 -0.889016 -27.841416 27.484406 0.000000 0.000000 0.000000 -5.586348 1.720039 3.541592 1.812835 2.426568 -5.500189 3.029420 37.756957 0.482550 0.000000 0.000000 0.000000 -6.381383 -17.050817 -7.446903 -8.047568 28.754900 -0.651346 -10.276681 -4.495610 -2.164181 0.000000 0.000000 0.000000 -4.873335 0.840938 2.673044 -4.796932 2.052591 -2.064220 -4.994512 -2.787092 -1.805013 0.000000 0.000000 0.000000 
303.127563 -137.792618 1140.067993 -0.124624 6.456420 0.321272 -0.754995 -4.869604 2.481883 -0.643935 0.749179 -0.504871 -0.488163 -1.166944 0.388890 -1.042902 2.880720 3.715241 0.000000 0.000000 0.000000 4.545856 2.287249 1.630669 -5.579756 3.048559 -18.140052 -1.294779 -31.385149 32.831026 0.000000 0.000000 0.000000 -5.657915 1.594516 4.046872 1.931503 2.326825 -5.499919 3.104066 36.598999 0.451953 0.000000 0.000000 0.000000 -6.491654 -18.300474 -8.001413 -8.145225 28.575870 -1.971972 -10.448828 -4.779815 -2.038981 0.000000 0.000000 0.000000 -4.605393 1.716557 2.327293 -4.646467 0.026121 -1.382564 -4.743061 -3.211202 -1.656694 0.000000 0.000000 0.000000 
305.680725 -138.452454 1137.895996 0.104248 6.959916 0.175841 -0.833905 -4.269854 3.483503 -0.781342 0.708427 -0.713063 -0.601004 -1.045792 0.523159 -1.075482 2.713172 3.847802 0.000000 0.000000 0.000000 4.788808 1.901448 1.805552 -6.481809 2.656797 -19.558268 -1.782900 -34.662509 36.798286 0.000000 0.000000 0.000000 -5.633930 1.154558 4.016146 1.989972 1.909640 -5.182818 3.150397 35.885459 0.397788 0.000000 0.000000 0.000000 -6.370529 -20.065097 -8.398549 -7.990775 28.691912 -3.292734 -10.431317 -5.172164 -1.753266 0.000000 0.000000 0.000000 -4.329243 1.975800 2.228565 -4.428259 -1.114832 -0.955002 -4.481281 -3.415589 -1.524947 0.000000 0.000000 0.000000 
307.546082 -139.095383 1136.302002 -0.002977 7.482900 -0.050511 -0.730948 -3.365102 4.728386 -0.774442 0.635279 -0.934796 -0.565545 -0.889648 0.713415 -1.109864 2.389589 3.972618 0.000000 0.000000 0.000000 5.295032 1.531979 1.896445 -7.439076 2.338125 -20.595123 -2.338150 -37.782075 39.997067 0.000000 0.000000 0.000000 -5.524538 0.490868 3.687504 2.000150 1.262090 -4.686314 3.166253 35.373910 0.322975 0.000000 0.000000 0.000000 -6.164072 -22.076478 -8.618061 -7.698286 28.604137 -4.851097 -10.304536 -5.516231 -1.443056 0.000000 0.000000 0.000000 -3.979405 1.833753 2.196668 -4.099100 -1.648410 -0.631713 -4.128525 -3.458082 -1.371642 0.000000 0.000000 0.000000 
309.474579 -140.025406 1135.149048 -0.297776 8.114877 -0.220553 -0.537371 -2.364189 5.917381 -0.706298 0.538181 -1.134750 -0.471663 -0.714522 0.896022 -1.144376 2.055323 4.066716 0.000000 0.000000 0.000000 5.732605 1.049223 1.873415 -8.105263 1.935134 -21.068939 -2.684892 -40.025695 41.976484 0.000000 0.000000 0.000000 -5.393931 -0.144659 3.421522 2.014438 0.641806 -4.285893 3.180669 34.792886 0.246249 0.000000 0.000000 0.000000 -5.904353 -24.368094 -8.814339 -7.302018 28.803693 -6.202770 -10.112840 -5.667393 -1.217069 0.000000 0.000000 0.000000 -3.662273 1.428890 2.213548 -3.774046 -1.915194 -0.486607 -3.803169 -3.461786 -1.233391 0.000000 0.000000 0.000000 
